<svg width="196" height="104" viewBox="0 0 196 104" fill="none" xmlns="http://www.w3.org/2000/svg">
<path d="M182.883 81.3373L170.02 50.1462C165.164 50.6073 161.162 51.6038 158.011 53.1389C154.864 54.6739 152.324 56.5363 150.39 58.7244C148.455 60.9092 146.899 63.1925 145.722 65.574C144.548 67.9524 143.506 70.176 142.597 72.2431C141.533 75.0859 140.374 77.4465 139.121 79.325C137.871 81.2051 135.958 82.1048 133.381 82.0274C133.075 81.95 132.788 81.8726 132.521 81.7952C132.256 81.7211 131.935 81.5308 131.558 81.2212C128.445 79.8409 127.192 76.5048 127.801 71.2111C128.107 68.6796 128.657 65.8224 129.453 62.6394C130.247 59.4532 131.33 56.0187 132.699 52.3326C134.743 46.8116 137.151 40.9649 139.918 34.7893C142.689 28.6104 145.61 22.5089 148.681 16.4848C151.755 10.4607 154.733 4.99451 157.616 0.0830078H158.413L192.443 81.3373H182.883ZM169.682 49.34L152.954 9.98341C149.462 16.7347 145.953 23.8504 142.425 31.3322C138.895 38.8139 135.917 45.8925 133.49 52.5648C132.125 56.2509 131.044 59.666 130.25 62.8135C129.455 65.9578 128.904 68.757 128.598 71.2111C128.522 73.5895 128.71 75.6034 129.166 77.2546C129.62 78.9025 130.532 79.9554 131.902 80.415C132.28 80.4924 132.562 80.5698 132.75 80.6472C132.941 80.7246 133.187 80.8391 133.49 80.989C135.768 81.1438 137.476 80.3408 138.611 78.5768C139.749 76.8095 140.775 74.6231 141.685 72.0174C142.594 69.868 143.656 67.5848 144.867 65.1677C146.082 62.7523 147.696 60.432 149.708 58.2084C151.718 55.9816 154.316 54.0612 157.501 52.4487C160.69 50.8363 164.749 49.8011 169.682 49.34Z" fill="white"/>
<path d="M94.3415 80.9246H68.3511V0.0830078H94.3415C99.8137 0.0830078 104.944 1.13379 109.733 3.23376C114.52 5.33534 118.755 8.23583 122.44 11.9352C126.128 15.6363 129.016 19.9292 131.104 24.8142C133.195 29.7008 134.241 34.9691 134.241 40.6193C134.241 46.1941 133.195 51.424 131.104 56.3089C129.016 61.1955 126.128 65.4885 122.44 69.1879C118.755 72.8889 114.52 75.7701 109.733 77.8316C104.944 79.8947 99.8137 80.9246 94.3415 80.9246ZM77.2381 0.885135V80.007H94.3415C98.6732 80.007 102.738 78.9979 106.538 76.9781C110.336 74.9552 113.681 72.1301 116.569 68.5013C119.46 64.874 121.722 60.695 123.354 55.9624C124.989 51.2315 125.807 46.1171 125.807 40.6193C125.807 35.1231 124.989 29.9895 123.354 25.2185C121.722 20.449 119.46 16.233 116.569 12.5705C113.681 8.9048 110.336 6.04121 106.538 3.97814C102.738 1.91667 98.6732 0.885135 94.3415 0.885135H77.2381Z" fill="white"/>
<path d="M58.7912 81.3373L45.9278 50.1462C41.0714 50.6073 37.0695 51.6038 33.919 53.1389C30.7717 54.6739 28.2319 56.5363 26.2979 58.7244C24.3624 60.9092 22.8063 63.1925 21.6296 65.574C20.4562 67.9524 19.4135 70.176 18.5047 72.2431C17.4412 75.0859 16.2821 77.4465 15.0289 79.325C13.779 81.2051 11.8657 82.1048 9.28921 82.0274C8.98309 81.95 8.6961 81.8726 8.42825 81.7952C8.16358 81.7211 7.84311 81.5308 7.46525 81.2212C4.35304 79.8409 3.09986 76.5048 3.70891 71.2111C4.01503 68.6796 4.56509 65.8224 5.36068 62.6394C6.15468 59.4532 7.23725 56.0187 8.60682 52.3326C10.6508 46.8116 13.0583 40.9649 15.8261 34.7893C18.5971 28.6104 21.518 22.5089 24.5888 16.4848C27.6627 10.4607 30.641 4.99451 33.5236 0.0830078H34.3208L68.3511 81.3373H58.7912ZM45.5898 49.34L28.8617 9.98341C25.37 16.7347 21.8608 23.8504 18.3325 31.3322C14.8025 38.8139 11.8243 45.8925 9.39762 52.5648C8.03284 56.2509 6.95186 59.666 6.15786 62.8135C5.36227 65.9578 4.81222 68.757 4.5061 71.2111C4.42957 73.5895 4.6177 75.6034 5.07369 77.2546C5.52809 78.9025 6.44007 79.9554 7.80963 80.415C8.1875 80.4924 8.4697 80.5698 8.65784 80.6472C8.84916 80.7246 9.09469 80.8391 9.39762 80.989C11.676 81.1438 13.3835 80.3408 14.5187 78.5768C15.6571 76.8095 16.6823 74.6231 17.5927 72.0174C18.5015 69.868 19.5633 67.5848 20.775 65.1677C21.99 62.7523 23.6035 60.432 25.6156 58.2084C27.6261 55.9816 30.2233 54.0612 33.4088 52.4487C36.5976 50.8363 40.6568 49.8011 45.5898 49.34Z" fill="white"/>
<path d="M0 103.724V91.4923H1.42141L6.86437 100.736H6.10167L11.4753 91.4923H12.8967L12.914 103.724H11.2499L11.2326 94.1309H11.6313L6.84704 102.239H6.04966L1.23073 94.1309H1.66409V103.724H0Z" fill="white"/>
<path d="M14.7182 103.724L20.2131 91.4923H21.9292L27.4415 103.724H25.6214L20.7158 92.4709H21.4092L16.5036 103.724H14.7182ZM17.0583 100.666L17.5263 99.2684H24.356L24.8587 100.666H17.0583Z" fill="white"/>
<path d="M29.2516 103.724V91.4923H33.9838C35.047 91.4923 35.9542 91.6612 36.7053 91.9991C37.4565 92.3369 38.0343 92.8262 38.4388 93.4669C38.8432 94.1077 39.0455 94.8707 39.0455 95.7561C39.0455 96.6414 38.8432 97.4045 38.4388 98.0452C38.0343 98.6743 37.4565 99.1578 36.7053 99.4956C35.9542 99.8334 35.047 100.002 33.9838 100.002H30.205L30.985 99.1985V103.724H29.2516ZM37.364 103.724L34.2785 99.2859H36.1333L39.2535 103.724H37.364ZM30.985 99.3733L30.205 98.517H33.9318C35.0412 98.517 35.8791 98.2782 36.4453 97.8006C37.0231 97.3113 37.312 96.6298 37.312 95.7561C37.312 94.8823 37.0231 94.2067 36.4453 93.729C35.8791 93.2514 35.0412 93.0126 33.9318 93.0126H30.205L30.985 92.1389V99.3733Z" fill="white"/>
<path d="M43.3714 100.771L43.2848 98.6394L50.1665 91.4923H52.1426L46.821 97.154L45.8502 98.2374L43.3714 100.771ZM41.846 103.724V91.4923H43.5795V103.724H41.846ZM50.4438 103.724L45.4689 97.8879L46.6303 96.5948L52.4719 103.724H50.4438Z" fill="white"/>
<path d="M55.8825 96.7696H62.1228V98.2549H55.8825V96.7696ZM56.0385 102.204H63.1108V103.724H54.305V91.4923H62.8682V93.0126H56.0385V102.204Z" fill="white"/>
<path d="M68.3271 103.724V93.0126H64.1669V91.4923H74.2034V93.0126H70.0432V103.724H68.3271Z" fill="white"/>
<path d="M76.0914 103.724V91.4923H77.8248V103.724H76.0914Z" fill="white"/>
<path d="M81.4576 103.724V91.4923H82.879L90.9047 101.54H90.1594V91.4923H91.8928V103.724H90.4714L82.4456 93.6766H83.191V103.724H81.4576Z" fill="white"/>
<path d="M101.002 103.864C100.066 103.864 99.2054 103.713 98.4195 103.41C97.6337 103.095 96.9519 102.658 96.3741 102.099C95.7963 101.528 95.3456 100.864 95.022 100.107C94.6984 99.35 94.5367 98.517 94.5367 97.6084C94.5367 96.6997 94.6984 95.8667 95.022 95.1095C95.3456 94.3523 95.7963 93.6941 96.3741 93.1349C96.9635 92.5641 97.6511 92.1272 98.4369 91.8243C99.2227 91.5098 100.089 91.3525 101.037 91.3525C101.996 91.3525 102.874 91.5098 103.672 91.8243C104.469 92.1389 105.145 92.6107 105.7 93.2398L104.625 94.3232C104.128 93.8339 103.585 93.4786 102.996 93.2572C102.418 93.0242 101.788 92.9077 101.106 92.9077C100.413 92.9077 99.7658 93.0242 99.1649 93.2572C98.5755 93.4902 98.0613 93.8164 97.6222 94.2358C97.1946 94.6552 96.8595 95.1561 96.6168 95.7386C96.3857 96.3094 96.2701 96.9327 96.2701 97.6084C96.2701 98.2724 96.3857 98.8956 96.6168 99.4781C96.8595 100.049 97.1946 100.55 97.6222 100.981C98.0613 101.4 98.5755 101.726 99.1649 101.959C99.7543 102.192 100.396 102.309 101.089 102.309C101.736 102.309 102.354 102.21 102.944 102.012C103.545 101.802 104.099 101.459 104.608 100.981L105.596 102.309C104.995 102.822 104.29 103.212 103.481 103.48C102.684 103.736 101.858 103.864 101.002 103.864ZM103.932 102.082V97.5385H105.596V102.309L103.932 102.082Z" fill="white"/>
<path d="M116.777 103.864C115.956 103.864 115.228 103.73 114.593 103.462C113.957 103.194 113.454 102.822 113.085 102.344C112.715 101.866 112.53 101.313 112.53 100.684C112.53 100.136 112.651 99.6354 112.894 99.1811C113.137 98.7267 113.524 98.2899 114.055 97.8705C114.587 97.4394 115.286 96.9967 116.153 96.5424C116.858 96.1696 117.407 95.8434 117.8 95.5639C118.204 95.2843 118.487 95.0221 118.649 94.7775C118.822 94.5212 118.909 94.2474 118.909 93.9562C118.909 93.5601 118.77 93.2397 118.493 92.9951C118.216 92.7388 117.817 92.6107 117.297 92.6107C116.754 92.6107 116.326 92.7505 116.014 93.0301C115.714 93.298 115.563 93.6533 115.563 94.096C115.563 94.3173 115.598 94.5329 115.667 94.7425C115.748 94.9406 115.887 95.1678 116.083 95.4241C116.291 95.6687 116.586 95.9832 116.967 96.3677L123.381 102.798L122.445 103.917L115.633 97.0841C115.228 96.6764 114.91 96.3152 114.679 96.0007C114.448 95.6745 114.281 95.36 114.177 95.0571C114.073 94.7542 114.021 94.4455 114.021 94.1309C114.021 93.5834 114.154 93.1058 114.419 92.698C114.697 92.2787 115.078 91.9583 115.563 91.737C116.06 91.504 116.638 91.3875 117.297 91.3875C117.909 91.3875 118.441 91.4923 118.892 91.702C119.342 91.9 119.689 92.1913 119.932 92.5757C120.186 92.9485 120.313 93.4028 120.313 93.9387C120.313 94.4047 120.197 94.8357 119.966 95.2318C119.747 95.6279 119.389 96.0124 118.892 96.3851C118.395 96.7579 117.724 97.1598 116.881 97.5909C116.187 97.952 115.644 98.2899 115.251 98.6044C114.858 98.9073 114.575 99.2102 114.402 99.5131C114.24 99.816 114.159 100.148 114.159 100.509C114.159 100.894 114.269 101.237 114.489 101.54C114.72 101.831 115.038 102.059 115.442 102.222C115.858 102.385 116.338 102.466 116.881 102.466C117.655 102.466 118.354 102.297 118.978 101.959C119.602 101.622 120.122 101.115 120.538 100.439C120.966 99.7635 121.278 98.9248 121.474 97.9229L122.809 98.3598C122.578 99.5364 122.179 100.532 121.613 101.348C121.058 102.163 120.371 102.787 119.55 103.218C118.73 103.649 117.805 103.864 116.777 103.864Z" fill="white"/>
<path d="M130.109 103.724V91.4923H135.222C136.517 91.4923 137.655 91.7486 138.637 92.2612C139.631 92.7738 140.399 93.4902 140.943 94.4105C141.497 95.3309 141.775 96.3968 141.775 97.6084C141.775 98.8199 141.497 99.8858 140.943 100.806C140.399 101.726 139.631 102.443 138.637 102.956C137.655 103.468 136.517 103.724 135.222 103.724H130.109ZM131.842 102.204H135.118C136.124 102.204 136.99 102.012 137.718 101.627C138.458 101.243 139.03 100.707 139.434 100.02C139.839 99.3208 140.041 98.517 140.041 97.6084C140.041 96.688 139.839 95.8842 139.434 95.1969C139.03 94.5096 138.458 93.9737 137.718 93.5892C136.99 93.2048 136.124 93.0126 135.118 93.0126H131.842V102.204Z" fill="white"/>
<path d="M146.007 96.7696H152.247V98.2549H146.007V96.7696ZM146.163 102.204H153.236V103.724H144.43V91.4923H152.993V93.0126H146.163V102.204Z" fill="white"/>
<path d="M159.579 103.864C158.654 103.864 157.77 103.724 156.926 103.445C156.083 103.154 155.418 102.781 154.933 102.326L155.574 100.963C156.037 101.371 156.626 101.709 157.342 101.977C158.059 102.245 158.804 102.379 159.579 102.379C160.283 102.379 160.855 102.297 161.295 102.134C161.734 101.971 162.057 101.75 162.265 101.47C162.473 101.179 162.577 100.853 162.577 100.492C162.577 100.072 162.439 99.7344 162.161 99.4781C161.896 99.2218 161.543 99.018 161.104 98.8665C160.676 98.7034 160.203 98.5636 159.683 98.4471C159.162 98.3306 158.637 98.1967 158.105 98.0452C157.585 97.8821 157.105 97.6783 156.666 97.4336C156.239 97.189 155.892 96.8628 155.626 96.455C155.361 96.0357 155.228 95.4998 155.228 94.8474C155.228 94.2183 155.389 93.6417 155.713 93.1174C156.048 92.5816 156.557 92.1563 157.238 91.8418C157.932 91.5156 158.81 91.3525 159.873 91.3525C160.578 91.3525 161.277 91.4457 161.971 91.6321C162.664 91.8185 163.265 92.0864 163.773 92.4359L163.201 93.8339C162.681 93.4844 162.132 93.2339 161.555 93.0825C160.977 92.9194 160.416 92.8378 159.873 92.8378C159.191 92.8378 158.631 92.9252 158.192 93.1C157.753 93.2747 157.429 93.5077 157.221 93.7989C157.025 94.0902 156.926 94.4164 156.926 94.7775C156.926 95.2085 157.059 95.5522 157.325 95.8085C157.602 96.0648 157.955 96.2687 158.382 96.4201C158.822 96.5715 159.301 96.7113 159.821 96.8395C160.341 96.956 160.861 97.0899 161.381 97.2414C161.913 97.3928 162.392 97.5909 162.82 97.8355C163.259 98.0802 163.612 98.4063 163.877 98.8141C164.143 99.2218 164.276 99.7461 164.276 100.387C164.276 101.004 164.109 101.581 163.773 102.117C163.438 102.641 162.918 103.066 162.213 103.392C161.52 103.707 160.642 103.864 159.579 103.864Z" fill="white"/>
<path d="M166.809 103.724V91.4923H168.542V103.724H166.809Z" fill="white"/>
<path d="M177.652 103.864C176.716 103.864 175.855 103.713 175.07 103.41C174.284 103.095 173.602 102.658 173.024 102.099C172.446 101.528 171.996 100.864 171.672 100.107C171.348 99.35 171.187 98.517 171.187 97.6084C171.187 96.6997 171.348 95.8667 171.672 95.1095C171.996 94.3523 172.446 93.6941 173.024 93.1349C173.613 92.5641 174.301 92.1272 175.087 91.8243C175.873 91.5098 176.739 91.3525 177.687 91.3525C178.646 91.3525 179.524 91.5098 180.322 91.8243C181.119 92.1389 181.795 92.6107 182.35 93.2398L181.275 94.3232C180.778 93.8339 180.235 93.4786 179.646 93.2572C179.068 93.0242 178.438 92.9077 177.756 92.9077C177.063 92.9077 176.416 93.0242 175.815 93.2572C175.226 93.4902 174.711 93.8164 174.272 94.2358C173.845 94.6552 173.509 95.1561 173.267 95.7386C173.036 96.3094 172.92 96.9327 172.92 97.6084C172.92 98.2724 173.036 98.8956 173.267 99.4781C173.509 100.049 173.845 100.55 174.272 100.981C174.711 101.4 175.226 101.726 175.815 101.959C176.404 102.192 177.046 102.309 177.739 102.309C178.386 102.309 179.004 102.21 179.594 102.012C180.195 101.802 180.749 101.459 181.258 100.981L182.246 102.309C181.645 102.822 180.94 103.212 180.131 103.48C179.334 103.736 178.508 103.864 177.652 103.864ZM180.582 102.082V97.5385H182.246V102.309L180.582 102.082Z" fill="white"/>
<path d="M185.565 103.724V91.4923H186.986L195.012 101.54H194.267V91.4923H196V103.724H194.579L186.553 93.6766H187.298V103.724H185.565Z" fill="white"/>
</svg>
