<svg width="160" height="69" viewBox="0 0 160 69" fill="none" xmlns="http://www.w3.org/2000/svg">
<path d="M151.902 68.4151L141.006 42.1525C136.892 42.5408 133.502 43.3799 130.833 44.6723C128.167 45.9648 126.016 47.5329 124.378 49.3753C122.738 51.2149 121.42 53.1373 120.423 55.1426C119.429 57.1451 118.546 59.0174 117.776 60.7579C116.875 63.1514 115.893 65.139 114.832 66.7207C113.773 68.3037 112.152 69.0613 109.97 68.9961C109.71 68.931 109.467 68.8658 109.241 68.8006C109.016 68.7382 108.745 68.578 108.425 68.3173C105.788 67.1551 104.727 64.3462 105.243 59.889C105.502 57.7574 105.968 55.3517 106.642 52.6717C107.315 49.9889 108.232 47.0971 109.392 43.9935C111.123 39.3449 113.163 34.422 115.507 29.2222C117.854 24.0197 120.329 18.8823 122.93 13.8101C125.534 8.73788 128.057 4.13542 130.498 0H131.174L160 68.4151H151.902ZM140.719 41.4737L126.549 8.33601C123.592 14.0205 120.619 20.0119 117.63 26.3114C114.64 32.6109 112.117 38.571 110.062 44.189C108.906 47.2926 107.99 50.1681 107.317 52.8183C106.643 55.4657 106.177 57.8226 105.918 59.889C105.853 61.8915 106.013 63.5872 106.399 64.9775C106.784 66.365 107.556 67.2515 108.716 67.6385C109.037 67.7036 109.276 67.7688 109.435 67.834C109.597 67.8991 109.805 67.9955 110.062 68.1218C111.992 68.2521 113.438 67.576 114.4 66.0907C115.364 64.6028 116.232 62.7618 117.004 60.5678C117.773 58.758 118.673 56.8356 119.699 54.8005C120.728 52.7667 122.095 50.813 123.8 48.9408C125.503 47.0659 127.703 45.4489 130.401 44.0913C133.102 42.7336 136.541 41.862 140.719 41.4737Z" fill="white"/>
<path d="M76.8997 68.0676H54.8837V0H76.8997C81.5351 0 85.881 0.884749 89.9372 2.6529C93.9922 4.42239 97.5803 6.86457 100.702 9.97943C103.826 13.0956 106.272 16.7103 108.04 20.8233C109.811 24.9378 110.698 29.3737 110.698 34.131C110.698 38.8249 109.811 43.2284 108.04 47.3415C106.272 51.4559 103.826 55.0705 100.702 58.1854C97.5803 61.3016 93.9922 63.7276 89.9372 65.4633C85.881 67.2004 81.5351 68.0676 76.8997 68.0676ZM62.4118 0.675381V67.2949H76.8997C80.5691 67.2949 84.0125 66.4453 87.2312 64.7447C90.4487 63.0414 93.2819 60.6627 95.7281 57.6073C98.177 54.5532 100.093 51.0345 101.476 47.0497C102.861 43.0663 103.554 38.7601 103.554 34.131C103.554 29.5033 102.861 25.1809 101.476 21.1637C100.093 17.1479 98.177 13.5981 95.7281 10.5143C93.2819 7.42784 90.4487 5.01673 87.2312 3.27965C84.0125 1.54392 80.5691 0.675381 76.8997 0.675381H62.4118Z" fill="white"/>
<path d="M46.7858 68.4151L35.8894 42.1525C31.7756 42.5408 28.3857 43.3799 25.717 44.6723C23.051 45.9648 20.8995 47.5329 19.2613 49.3753C17.6217 51.2149 16.3036 53.1373 15.3069 55.1426C14.3129 57.1451 13.4296 59.0174 12.6598 60.7579C11.7589 63.1514 10.7771 65.139 9.71555 66.7207C8.65671 68.3037 7.03603 69.0613 4.85353 68.9961C4.59422 68.931 4.35112 68.8658 4.12422 68.8006C3.90003 68.7382 3.62857 68.578 3.30848 68.3173C0.672188 67.1551 -0.389353 64.3462 0.126561 59.889C0.385869 57.7574 0.851813 55.3517 1.52574 52.6717C2.19832 49.9889 3.11535 47.0971 4.27549 43.9935C6.00691 39.3449 8.04625 34.422 10.3908 29.2222C12.7381 24.0197 15.2123 18.8823 17.8135 13.8101C20.4174 8.73788 22.9402 4.13542 25.3821 0H26.0573L54.8837 68.4151H46.7858ZM35.6031 41.4737L21.433 8.33601C18.4753 14.0205 15.5027 20.0119 12.5139 26.3114C9.52377 32.6109 7.00092 38.571 4.94536 44.189C3.78928 47.2926 2.8736 50.1681 2.20102 52.8183C1.52709 55.4657 1.06115 57.8226 0.801842 59.889C0.737015 61.8915 0.896381 63.5872 1.28264 64.9775C1.66755 66.365 2.44007 67.2515 3.6002 67.6385C3.92029 67.7036 4.15934 67.7688 4.3187 67.834C4.48077 67.8991 4.68876 67.9955 4.94536 68.1218C6.87532 68.2521 8.32177 67.576 9.28337 66.0907C10.2477 64.6028 11.1161 62.7618 11.8872 60.5678C12.6571 58.758 13.5565 56.8356 14.583 54.8005C15.6121 52.7667 16.9789 50.813 18.6833 48.9408C20.3863 47.0659 22.5864 45.4489 25.2848 44.0913C27.9859 42.7336 31.4245 41.862 35.6031 41.4737Z" fill="white"/>
</svg>
